<svg xmlns="http://www.w3.org/2000/svg" width="1242.512" height="276.547" viewBox="0 0 1242.512 276.547">
  <g id="Group_5646" data-name="Group 5646" transform="translate(-8.41 -13.16)">
    <g id="Group_12" data-name="Group 12" transform="translate(268.604 13.16)">
      <path id="Path_57" data-name="Path 57" d="M164.186,139.173a65.527,65.527,0,0,1-18.629-2.625,48.65,48.65,0,0,1-15.188-7.239l1.048-6.047a50.24,50.24,0,0,0,15.037,7.478,58.214,58.214,0,0,0,17.581,2.7q14.961,0,23.567-7t8.6-19.253q0-8.115-3.142-13.126T182.516,85a161.467,161.467,0,0,0-21.471-9.15Q146.378,70.6,139.571,62.8t-6.806-19.41q0-13.844,9.2-22.037t24.914-8.194A63.427,63.427,0,0,1,197.1,20.638l-1.345,5.569a61.3,61.3,0,0,0-28.878-7.319q-13.169,0-20.725,6.365T138.6,42.914q0,7.321,2.694,12.091a24.261,24.261,0,0,0,8.528,8.433,85.968,85.968,0,0,0,15.861,7.318q14.512,5.252,22.3,10.342t11,11.138a30.461,30.461,0,0,1,3.217,14.48q0,14.954-10.251,23.7T164.186,139.173Z" transform="translate(-130.37 -13.16)" fill="#014993"/>
      <path id="Path_58" data-name="Path 58" d="M180.782,14.343H210.11q16.907,0,26.933,9.466t10.026,25.379q0,17.027-10.548,26.571t-29.1,9.546H186.766v49.96h-5.984Zm5.984,64.918h19.9q16.756,0,25.435-7.639t8.681-22.115q0-13.844-8.231-21.48T209.361,20.39H186.766Z" transform="translate(-72.302 -11.797)" fill="#014993"/>
      <path id="Path_59" data-name="Path 59" d="M280.833,139.173a53.677,53.677,0,0,1-28.581-7.876,57.438,57.438,0,0,1-20.647-22.276q-7.785-14.4-7.781-32.7a70.2,70.2,0,0,1,7.108-31.663,57.365,57.365,0,0,1,20.2-22.911,53.177,53.177,0,0,1,29.851-8.592,53.786,53.786,0,0,1,28.5,7.876,56.664,56.664,0,0,1,20.651,22.356q7.7,14.48,7.706,32.775a69.871,69.871,0,0,1-7.11,31.5,57.4,57.4,0,0,1-20.2,22.911A52.92,52.92,0,0,1,280.833,139.173Zm0-6.206a48.009,48.009,0,0,0,25.51-7.08,50.768,50.768,0,0,0,18.48-20.047q6.882-12.966,6.884-29.515a63.867,63.867,0,0,0-6.359-28.639,51.588,51.588,0,0,0-18.033-20.6,46.944,46.944,0,0,0-26.483-7.717,48.024,48.024,0,0,0-25.513,7.08,50.78,50.78,0,0,0-18.48,20.047q-6.885,12.973-6.884,29.515a63.812,63.812,0,0,0,6.361,28.639,51.534,51.534,0,0,0,18.03,20.6A46.913,46.913,0,0,0,280.833,132.967Z" transform="translate(-22.724 -13.16)" fill="#014993"/>
      <path id="Path_60" data-name="Path 60" d="M323.917,20.231h-38.9V14.343H368.81v5.888H329.9V135.265h-5.986Z" transform="translate(47.762 -11.797)" fill="#014993"/>
      <path id="Path_61" data-name="Path 61" d="M336.331,14.343h41.3q17.956,0,31.424,7.159a50.134,50.134,0,0,1,20.873,20.765q7.4,13.6,7.4,32.377,0,28.96-16.384,44.789t-46.16,15.831H336.331ZM349.8,123.014h25.286q23.941,0,35.988-12.093T423.118,74.8q0-24.021-12.046-36.117T375.237,26.594H349.8Z" transform="translate(106.87 -11.797)" fill="#014993"/>
      <path id="Path_62" data-name="Path 62" d="M395.783,14.343h32.472q17.65,0,28.353,10.023t10.7,26.412a35.705,35.705,0,0,1-5.685,19.89,34.422,34.422,0,0,1-15.711,13.047l32.769,51.55h-16.01L432.743,86.9a44.159,44.159,0,0,1-4.939.161h-19v48.208H395.783ZM408.8,75.122h16.46q14.06,0,21.172-6.124t7.107-18.22q0-11.933-6.959-18.218t-20.125-6.286H408.8Z" transform="translate(175.351 -11.797)" fill="#014993"/>
      <path id="Path_63" data-name="Path 63" d="M487.146,14.343h14.813l46.235,120.922H533.683L520.065,98.67H468.143l-13.466,36.595H440.911Zm28.579,72.4L494.18,28.345,472.632,86.738Z" transform="translate(227.332 -11.797)" fill="#014993"/>
      <path id="Path_64" data-name="Path 64" d="M501.2,14.343h67.635V26.594H514.666V69.235h46.685V81.488H514.666v53.777H501.2Z" transform="translate(296.774 -11.797)" fill="#014993"/>
      <path id="Path_65" data-name="Path 65" d="M583.352,26.594h-38.9V14.343h91.275V26.594h-38.9V135.265H583.352Z" transform="translate(346.594 -11.797)" fill="#014993"/>
    </g>
    <g id="Group_13" data-name="Group 13" transform="translate(8.41 14.45)">
      <path id="Path_66" data-name="Path 66" d="M207.383,13.76H111.075L63.486,46.714,9.133,167.589H63.011L8.41,289.016,206.658,135.187H152.781Z" transform="translate(-8.41 -13.759)" fill="#1b91fb"/>
      <path id="Path_67" data-name="Path 67" d="M81.644,13.76,33.96,46.731H66.931Z" transform="translate(21.02 -13.76)" fill="#014993"/>
      <path id="Path_68" data-name="Path 68" d="M102.914,38.256H48.257l1.4-3.248h54.658Z" transform="translate(37.488 10.716)" fill="#fff"/>
      <path id="Path_69" data-name="Path 69" d="M98.446,49.235H43.62l1.4-3.248H99.848Z" transform="translate(32.148 23.234)" fill="#fff"/>
      <path id="Path_70" data-name="Path 70" d="M93.918,60.213H39.261l1.4-3.248H95.32Z" transform="translate(27.127 35.836)" fill="#fff"/>
      <path id="Path_71" data-name="Path 71" d="M89.3,71.191H34.64l1.4-3.248H90.7Z" transform="translate(21.804 48.439)" fill="#fff"/>
    </g>
  </g>
</svg>
